<?xml version="1.0" encoding="UTF-8"?>
<svg id="Warstwa_1" data-name="Warstwa 1" xmlns="http://www.w3.org/2000/svg" xmlns:xlink="http://www.w3.org/1999/xlink" viewBox="0 0 1289.29 1040">
  <defs>
    <style>
      .cls-1 {
        fill: none;
        stroke: #fff;
        stroke-miterlimit: 10;
      }
    </style>
  </defs>
  <image width="843" height="680" transform="scale(1.53)" xlink:href="img/GLOCK17MAIN.png"/>
  <path id="szkielet" class="cls-1" d="M62.52,219.27l234.54,9.43,4.11-3.36,4.48-1.12,30.63,2.24,4.11,2.24,3.74,3.36v6.35l72.09,4.11,4.48-2.24,4.86-2.99,8.96-1.12,498.12,27.08h165.2v25.77l2.43,13.45,4.48,16.06,4.48,8.59,5.98,8.96,8.22,7.84,5.98,3.36,10.83,2.99h11.95l11.58-4.48,11.95-9.71,11.95-14.94,5.6-10.46,4.11-12.7,2.24-6.35v6.72l-1.49,9.71-4.48,16.06-8.96,17.56-7.84,8.59-7.84,7.1-6.35,5.98-16.06,7.1-17.56,1.87-7.84,2.61-338.05-7.84-14.57,17.18-1.87,36.61,1.12,44.08,2.61,44.82,2.61,16.44,9.34,31.75v7.1l-2.24,5.98-3.74,5.23-4.11,2.99-14.19,5.6-15.69,5.6-14.19,4.11h-29.14l-209.56-18.3-13.07-6.72-5.23-2.24-3.36,1.49.37,5.23-45.2,190.88-24.28,102.72-5.6,18.68-1.87,16.81,1.49,26.89,1.49,13.07-3.74,9.34-5.6,4.86-18.3,7.84-36.98,10.46-29.88,3.36-46.32,2.99h-40.34l-29.14-2.61-56.03-8.96-43.33-9.34-19.42-6.35-15.32-39.6-.75-23.16,2.61-72.84,9.34-45.2,19.42-62.01,36.23-108.33,19.8-85.17,11.21-55.66,7.84-63.13s-1.12-34.37-1.87-36.23-7.47-20.92-7.47-20.92l-10.46-22.41-7.1-11.58-6.35-10.46-10.09-11.21-7.47-8.96-9.71-7.84-9.71-6.35-9.34-5.6-10.83-2.61-6.35-2.61-9.71-10.83-1.87-9.34v-6.72l3.55-6.63,4.76-1.21,6.96,1.21Z"/>
  <polygon id="blokada1" class="cls-1" points="297.06 228.71 292.9 232.72 290.66 235.94 287.16 237.34 281.18 235.8 276.14 237.34 272.22 243.09 269.42 251.77 269.42 260.18 269.42 269.98 270.82 275.86 274.46 280.63 280.06 282.59 312.56 282.59 315.92 280.63 319.56 276.99 325.17 274.74 329.93 271.1 329.93 261.3 329.93 254.01 329.93 246.17 335.53 240.01 340.02 234.4 344.12 232.07 336.28 226.46 305.65 224.22 297.06 228.71"/>
</svg>