<?xml version="1.0" encoding="UTF-8"?>
<svg id="glock" xmlns="http://www.w3.org/2000/svg" xmlns:xlink="http://www.w3.org/1999/xlink" viewBox="0 0 1289.79 1040.4">
  <defs>
    <style>
      .cls-1 {
        fill: none;
      }

      .cls-2 {
        isolation: isolate;
      }
    </style>
  </defs>
  <image class="cls-2" width="843" height="680" transform="scale(1.53)" xlink:href="img/glock17.png"/>
  <path id="blokada2" class="cls-1" d="M297.01,228.93c-3.74.9-8.34,3.38-10.08,7-12.77-3-16.78,9.91-17.37,20.17-2.59,32.31,7.68,23.19,31.94,28.57,10.41,1.19,21.19-1.27,28.01-9.81-.18-10.68.63-23.97,4.2-33.9,2.84-.56,8.26-.65,10.65,1.4,9.81-2.59-2.6-11.78-5.86-15.3-7.54-.75-37.44-5.27-41.49,1.86Z"/>
  <polygon id="zrzut" class="cls-1" points="289.82 511.94 325.68 530.99 328.48 522.4 373.68 533.23 378.72 477.95 360.61 473.47 333.34 464.88 317.84 458.34 308.69 453.67 303.08 450.68 298.32 446.85 289.82 511.94"/>
  <ellipse id="pin" class="cls-1" cx="462.2" cy="323.2" rx="8.59" ry="13.03"/>
  <polyline id="spust" class="cls-1" points="523.28 526.32 508.72 525.58 498.26 521.47 492.28 516.98 486.68 510.07 476.22 491.02 465.57 464.32 459.04 440.22 456.79 420.61 456.79 411.09 456.79 399.13 459.97 389.23 465.2 383.44 472.11 376.35 482.2 370 492.65 367.38 509.84 365.7 536.73 362.34 562.13 359.91 556.16 368.13 552.79 374.85 547.94 386.25 541.96 403.8 540.84 415.57 538.79 445.26 539.35 455.72 539.35 470.48 542.52 490.04 544.76 497 547 504.66 548.22 508.3 548.92 512.92 547.8 516.42 545.28 519.09 539.53 521.89 534.49 523.85 528.61 524.97"/>
  <path id="zamek" class="cls-1" d="M1205.18,98.15l-6.65-14.71-10.23-14.43-5.81-6.93-6.93-4.69-15.48-6.3-19.05.28.84,2.52,1.68,2.8v2.8l-6.72,1.4-9.25,1.12-53.51-1.12-1.68-3.36,1.68-5.04v-4.48l-850.27-13.73-94.97,13.45-3.08,1.4-3.08,1.96-3.08,2.8-2.8,4.48-1.12,3.64-19.33-.28v-17.65h-26.61l-3.92,1.68-3.92,2.8-3.92,2.52-3.64,4.2-6.02,6.72-1.72,4.48-2.62,6.44,8.68,133.63.47,1.14,2.52,2.38,2.91,2.73.28,3.29,54.08,2.61,123.69,5.93,44.2,2.12,11.9.4,5.21-.29,1.91-.18,1.55-.56,2.49-.57,4.32-.61h8.4l9.26.71,12.68,1.39,8.36,8.75.86,1.6.26,2.26,1-.27,1.9-.76,3.12-.51,27.88.93,1.59.67,2.94,1.24,31.98-.33.87-.68.62-.49.86-.28,1.52-.93.86-.83.87-.96,2.89-1.77,324.98,15.55,2.03,2.75,342.39,9.64,1.4,4.13.17,2.96.5,8.91.78,13.79.8,8.37,1.71,6.81,2.42,8.02,1.39,4.66,2.25,3.62,4.58,7.65,3.46,4.79,4.84,5.42,4.66,3.94,2.62,1.44,8.78,2.36,7.63.06h6.72l4.89-1.07,5.58-1.9,5.5-2.74,4.46-2.93,5.32-4.64,9.45-11.51.14-.31,12.15-27.18.39-3.38.45-3.86,1.96-16.76,6.46-34.8V108.17l-2.59-10.02ZM587.07,76.63c-2.27,4.37-3.86,8.84-4.49,13.69-2.69,19.61,2.58,43.2-11.65,59.04-2.78,3.29-6.81,6.69-10.25,8.65-4.92,2.87-10.06,1.41-15.5,1.54-23.8-.66-58.65-1.66-81.52-2.3-4.82-.11-6.99.15-7.67-3.14-2.5-1.78-14.4-10.68-18.95-13.86-17.36-1.75-80.24.52-97.56-6.63-1.87-1.23-3.44-3.66-4.72-5.33-1.64-2.27-3.12-4.76-3.71-7.44-1.36-7.11,8.78-6.24,9.93-12.08.49-3.05-.24-6.48.67-9.48.95-4.04,4.94-4.66,8.12-5.07,1.89.13,52.8,1.22,63.4,1.8l.1.03c10.2,2.96,19.88,10.28,29.17,14.98,3.71,1.85,9.92,5.33,13.08,6.98.13.09.25.15.35.2-.08-13.83,0-34.3-.03-46.48,0-3.66-.01-5.88.35-6.94.42-1.26,1.57-1.14,2.77-1.19,17,.18,112.58-.35,132.21.18,3.61.96-3.2,10.37-4.07,12.87ZM1188.04,299.66c-2.16,7.13-5.21,14.06-9.82,19.99-10.89,14.19-27.95,18.55-39.93,2.75-10.15-13.01-12.05-32.14-9.58-48.1,1.79-11.72,5.67-23.8,14.09-31.99l.14-.13c6.73-6.57,17.33-10.19,26.33-7.1,9.4,3.09,14.92,12.49,17.97,21.46,4.83,13.95,5.1,28.95.79,43.12ZM1201.65,148.57c-.52,20.24-6.28,41.68-20.08,55-12.32,12.46-30.84,16.21-44.96,4.93-18.68-14.33-22.28-42.84-19.2-65.56,2.23-16.59,7.04-33.04,16.83-46.58l.12-.16c10.69-15.11,28.92-20.56,44.38-10.3,18.97,13.39,23.21,40.32,22.92,62.66Z"/>
  <g id="szkielet">
    <polygon class="cls-1" points="539.08 441.07 538.79 445.26 539.27 454.27 539.08 441.07"/>
    <polygon class="cls-1" points="541 413.94 540.84 415.57 540.7 417.59 541 413.94"/>
    <polygon class="cls-1" points="554.58 371.29 557.13 366.79 561.3 362.05 562.13 359.91 556.16 368.13 554.58 371.29"/>
    <polygon class="cls-1" points="539.44 435.87 539.16 439.89 539.44 435.88 539.44 435.87"/>
    <path class="cls-1" d="M1198.51,297.31l-5.36,14.11-5.46,10.23-1.47,3.15-5.81,7.42-4.55,5.11-3.15,2.73-4.48,3.15-5.81,3.08-9.67,3.29-16.88-.07-6.23-1.4-5.88-3.22-6.09-6.02-4.76-6.3-4.55-7.63-2.87-4.62-3.08-10.37-1.96-6.23-.98-5.95-1.75-30.96-1.4-4.13-3.2-.28-339.19-9.36-2.03-2.75-70.02-3.35-102.27-4.21-152.68-7.98-2.89,1.77-1.4,1.54-1.4,1.03-1.31.42-1.49,1.17-1.73.28-30.26.05-4.53-1.91-27.88-.93-4.09.67-5.56,3.57c-2.38-2.05-7.81-1.97-10.65-1.4-3.57,9.93-4.38,23.22-4.2,33.9-6.82,8.54-17.6,11-28.01,9.81-24.26-5.39-34.53,3.74-31.94-28.57.59-10.26,4.6-23.17,17.37-20.17,1.75-3.62,6.34-6.11,10.08-7l.86-2.04-4.86.28-2.24.09-232.25-11.14-5.67,1.96-5.11,5.67-1.19,3.71v10.16l4.41,9.03,9.74,8.89,5.25,2.73,7.87,1.35,10.09,4.2,15.5,10.46,12.61,13.45,15.88,20.82,11.39,18.68,9.15,24.09,4.2,18.96-.37,27.92-1.12,16.25-1.96,22.79-3.27,25.03-4.02,23.25-3.18,16.86-3.08,18.63-4.76,20.45-2.94,15.97-4.62,19.47-6.02,22.27-4.62,16.25-4.9,17.23-7.42,21.01-6.44,18.35-9.11,26.33-7,18.54-4.95,16.06-5.14,14.47-2.43,8.87-3.64,13.82-4.48,18.58-2.99,15.22-1.24,10.83-4.55,38.17-.07,11.07-.14,28.58.07,20.17,1.96,10.16,2.38,6.51,3.29,7.49.21,6.65,1.26,2.38,6.44,9.32,8.75,9.74,2.87,2.8,1.96,4.27,1.47,2.03-.07,2.03,4.55,2.73,9.46,1.47,15.36,2.61,9.25,1.49,28.86,4.86,18.77,2.71,15.88,2.71,17.28,2.15,10.46,1.77,14.94,2.61,12.42.47h16.44l15.69-1.87,16.16-.93,32.68-2.24,16.06-2.52,15.88-5.04,16.25-6.82,9.43-2.99,5.79-3.92,10.65-10.27,2.8-1.87v-15.25l1.7-16.74-1.4-13.45-.42-17.51,1.82-6.44,1.4-12.19,2.8-7.07,1.68-1.82,1.68-13.87,1.26-1.68,2.03-18,1.33-3.29,4.55-13.73,3.36-14.15,2.66-14.93,3.22-14.01,2.66-13.73,5.04-21.43,2.8-8.82,3.36-12.47,2.52-12.05,1.96-14.01,4.34-10.79,1.96-15.41,2.66-11.91,1.68-7.84,3.08-9.25,1.54-5.88,2.94-13.73,1.82-7.7,1.54-7.42,1.96-8.26,2.24-11.35,3.5-9.39,1.12-4.62,2.52-.28,3.64.42,3.08,2.66,16.53,4.48,17.09,3.64,28.58,1.4,41.46,4.2,44.4,1.68,43.28,2.94,27.88,3.22,25.49,1.68,8.12-1.68,9.11-1.82,5.6-2.94,9.25-3.22,8.96-2.66,10.93-7.28,4.9-3.36,1.68-3.08,1.96-3.08.7-12.05-4.53-15.32-3.36-9.9-1.31-8.4-1.87-9.34-1.12-11.21-2.8-17.18-.56-49.68-.37-29.14,2.24-16.44,1.68-8.22,2.43-3.18,3.74-3.55,5.84-4.11,2.75-2.24,3.36-.56,126.82,5.42,67.24.56h140.08l8.59-1.87,15.32-2.43,6.35-2.99,7.47-2.99,15.6-15.32,7.47-8.03,6.26-10.74,2.89-6.07,2.99-9.53,2.71-9.06v-33.15l-2.8,24ZM373.68,533.23l-45.2-10.83-2.8,8.59-35.86-19.05,8.5-65.09,4.76,3.83,5.6,2.99,9.15,4.67,15.5,6.54,27.27,8.59,18.12,4.48-5.04,55.28ZM521.99,289.25c1.11-3.7,2.32-7.76,3.42-11.38,1.46-4.48,2.21-7.2,5.12-7.94l.13-.03c3.75-.46,8.4,2.05,10.34,5.34,1.6,2.99.48,6.6-.24,9.8-1.39,5.52-3.24,12.99-4.59,18.18-.86,2.95-1.76,7.43-5.68,6.84-3.96-.78-8.69-3.35-10.57-7.15-1.53-3.45.71-8.73,2.07-13.65ZM453.61,323.2c0-7.2,3.85-13.03,8.59-13.03s8.59,5.84,8.59,13.03-3.85,13.03-8.59,13.03-8.59-5.84-8.59-13.03ZM662.39,499.93v4.11l-2.24,15.96-2.99,3.09-4.86,3.23-2.24,3.12h-17.93l-65.74-4.86-6.35-4.38-9.71-3.09-1.87-2.24v-.53l-.67,2.08-2.52,2.66-5.74,2.8-5.04,1.96-5.88,1.12-5.32,1.35-14.57-.75-10.46-4.11-5.98-4.48-5.6-6.91-10.46-19.05-10.65-26.71-6.54-24.09-2.24-19.61v-21.48l3.18-9.9,5.23-5.79,6.91-7.1,10.09-6.35,10.46-2.61,17.18-1.68,26.89-3.36,25.4-2.43h50.58l9.34,4.05,7.84,5.98,9.34,9.71,8.22,8.59,7.84,11.58,2.61,10.09,2.99,10.83,1.49,8.22v70.97Z"/>
    <polygon class="cls-1" points="552.79 374.85 547.94 386.25 541.96 403.8 548.84 384.6 554.58 371.29 552.79 374.85"/>
    <polygon class="cls-1" points="539.45 466.82 539.35 459.62 539.35 470.48 539.66 472.42 539.45 466.82"/>
    <polygon class="cls-1" points="542.11 487.28 540.57 477.19 539.66 472.42 542.52 490.04 544.76 497 546.74 503.74 542.11 487.28"/>
    <polygon class="cls-1" points="548.46 509.92 548.46 509.92 548.46 509.92 548.46 509.92"/>
  </g>
  <path id="pazur" class="cls-1" d="M413.15,96.01c-10.6-.58-61.51-1.67-63.4-1.8-3.17.4-7.17,1.03-8.12,5.07-.91,3-.18,6.43-.67,9.48-1.15,5.84-11.29,4.98-9.93,12.08.59,2.68,2.08,5.17,3.71,7.44,1.29,1.67,2.86,4.1,4.72,5.33,17.32,7.15,80.2,4.87,97.56,6.63,4.72,3.29,17.32,12.73,19.19,14.02.14.08.22.15.27,0,.04-.42,0-2.5.02-5.47,0-9.52.02-28.1-.01-29.97-.1-.47-.4-.45-1-.83-3.16-1.64-9.36-5.13-13.08-6.98-9.29-4.7-18.97-12.03-29.17-14.98l-.1-.03Z"/>
  <path id="lufa2" class="cls-1" d="M455.85,119.39c-.09-13.82-.01-35.14-.04-47.68,0-3.66-.01-5.88.35-6.94.42-1.26,1.57-1.14,2.77-1.19,17,.18,112.58-.35,132.21.18,3.61.96-3.2,10.37-4.07,12.87-2.27,4.37-3.86,8.84-4.49,13.69-2.69,19.61,2.58,43.2-11.65,59.04-2.78,3.29-6.81,6.69-10.25,8.65-4.92,2.87-10.06,1.41-15.5,1.54-23.8-.66-58.65-1.66-81.52-2.3-6.06-.14-7.94.32-7.92-6.46-.11-8.81.22-22.01.12-31.26v-.13Z"/>
  <path id="lufa1" class="cls-1" d="M1134.24,96.37c-9.79,13.54-14.61,29.99-16.83,46.58-3.08,22.72.53,51.23,19.2,65.56,14.12,11.28,32.64,7.53,44.96-4.93,13.81-13.33,19.57-34.76,20.08-55,.3-22.35-3.95-49.28-22.92-62.66-15.46-10.26-33.69-4.81-44.38,10.3l-.12.16Z"/>
  <path id="zerdz" class="cls-1" d="M1142.81,242.32c-8.42,8.18-12.31,20.26-14.09,31.99-2.47,15.95-.58,35.09,9.58,48.1,11.98,15.8,29.04,11.44,39.93-2.75,4.61-5.93,7.67-12.86,9.82-19.99,4.31-14.17,4.04-29.17-.79-43.12-3.05-8.97-8.57-18.37-17.97-21.46-9-3.09-19.6.53-26.33,7.1l-.14.13Z"/>
  <polygon id="stopka" class="cls-1" points="78.78 976.14 78.78 980.4 76.5 985.25 72.57 995.34 72.57 1000.38 72.57 1006.36 75.67 1010.28 84.9 1016.07 121.32 1026.15 154.01 1031.38 188 1034.75 210.04 1035.87 250.19 1037.55 270.36 1037.55 287.36 1036.61 300.06 1032.32 314.25 1026.15 337.23 1020.36 356.46 1016.44 370.66 1013.27 377.76 1011.4 383.55 1006.84 387.47 1001.72 389.52 997.77 392.14 978.15 393.81 963.25 391.01 965.12 385.62 970.31 381.24 974.54 372.68 979.91 360.7 984.16 340.75 991.7 332.2 994.29 324.8 995.45 304.33 997.55 275.03 999.46 266.61 1000.03 256.58 1001.23 250.75 1001.72 228.34 1001.72 220.47 1000.71 138.78 988.05 109.77 983.21 85.63 979.22 83.33 978.87 78.78 976.14"/>
  <path id="blokadap" class="cls-1" d="M521.99,289.25c1.11-3.7,2.32-7.76,3.42-11.38,1.46-4.48,2.21-7.2,5.12-7.94l.13-.03c3.75-.46,8.4,2.05,10.34,5.34,1.6,2.99.48,6.6-.24,9.8-1.39,5.52-3.24,12.99-4.59,18.18-.86,2.95-1.76,7.43-5.68,6.84-3.96-.78-8.69-3.35-10.57-7.15-1.53-3.45.71-8.73,2.07-13.65Z"/>
</svg>