<?xml version="1.0" encoding="UTF-8"?>
<svg id="glock" xmlns="http://www.w3.org/2000/svg" xmlns:xlink="http://www.w3.org/1999/xlink" viewBox="0 0 1325.68 994.26">
  <defs>
    <style>
      .cls-1 {
        fill: none;
      }

      .cls-2 {
        isolation: isolate;
      }
    </style>
  </defs>
  <image class="cls-2" width="1600" height="1200" transform="scale(.83)" xlink:href="img/glock17.png"/>
  <path id="blokada2" class="cls-1" d="M429.86,390.91c-2.36.57-5.27,2.14-6.37,4.43-8.07-1.89-10.6,6.27-10.98,12.75-1.64,20.42,4.86,14.66,20.19,18.06,6.58.75,13.39-.8,17.71-6.2-.11-6.75.4-15.15,2.66-21.43,1.79-.36,5.22-.41,6.73.89,6.2-1.64-1.64-7.45-3.7-9.67-4.76-.48-23.67-3.33-26.22,1.17Z"/>
  <polygon id="zrzut" class="cls-1" points="425.31 569.79 447.98 581.83 449.75 576.4 478.32 583.25 481.5 548.31 470.05 545.47 452.82 540.04 443.02 535.91 437.23 532.96 433.69 531.07 430.68 528.65 425.31 569.79"/>
  <ellipse id="pin" class="cls-1" cx="534.26" cy="450.5" rx="5.43" ry="8.24"/>
  <polyline id="spust" class="cls-1" points="572.88 578.88 563.67 578.41 557.06 575.81 553.28 572.98 549.74 568.61 543.13 556.57 536.4 539.69 532.27 524.46 530.85 512.06 530.85 506.04 530.85 498.49 532.86 492.23 536.16 488.57 540.53 484.09 546.9 480.07 553.51 478.42 564.38 477.36 581.37 475.23 597.43 473.7 593.65 478.89 591.53 483.14 588.46 490.34 584.68 501.44 583.97 508.88 582.67 527.65 583.03 534.26 583.03 543.58 585.03 555.95 586.45 560.35 587.87 565.19 588.64 567.49 589.08 570.41 588.37 572.63 586.78 574.31 583.15 576.08 579.96 577.32 576.24 578.03"/>
  <path id="zamek" class="cls-1" d="M1003.88,308.25l-4.21-9.3-6.46-9.12-3.67-4.38-4.38-2.97-9.78-3.98-12.04.18.53,1.59,1.06,1.77v1.77l-4.25.89-5.84.71-33.82-.71-1.06-2.12,1.06-3.19v-2.83l-537.43-8.68-60.03,8.5-1.95.89-1.95,1.24-1.95,1.77-1.77,2.83-.71,2.3-12.22-.18v-11.16h-16.82l-2.48,1.06-2.48,1.77-2.48,1.59-2.3,2.66-3.81,4.25-1.09,2.83-1.65,4.07,5.49,84.47.3.72,1.59,1.51,1.84,1.73.18,2.08,34.18,1.65,78.18,3.75,27.94,1.34,7.52.25,3.29-.19,1.21-.11.98-.35,1.58-.36,2.73-.39h5.31l5.85.45,8.02.88,5.28,5.53.54,1.01.17,1.43.63-.17,1.2-.48,1.97-.32,17.62.59,1,.42,1.86.79,20.22-.21.55-.43.39-.31.54-.17.96-.59.54-.52.55-.6,1.83-1.12,205.41,9.83,1.28,1.74,216.41,6.09.89,2.61.11,1.87.32,5.63.49,8.71.51,5.29,1.08,4.31,1.53,5.07.88,2.95,1.42,2.29,2.9,4.83,2.19,3.03,3.06,3.43,2.94,2.49,1.66.91,5.55,1.49,4.83.04h4.25l3.09-.68,3.53-1.2,3.48-1.73,2.82-1.85,3.36-2.93,5.97-7.27.09-.19,7.68-17.18.25-2.13.29-2.44,1.24-10.59,4.09-21.99v-82.39l-1.64-6.33ZM613.19,294.64c-1.43,2.76-2.44,5.59-2.84,8.65-1.7,12.4,1.63,27.3-7.37,37.32-1.76,2.08-4.3,4.23-6.48,5.47-3.11,1.82-6.36.89-9.8.97-15.04-.42-37.07-1.05-51.53-1.46-3.05-.07-4.42.09-4.85-1.98-1.58-1.12-9.1-6.75-11.98-8.76-10.97-1.11-50.72.33-61.66-4.19-1.18-.78-2.17-2.31-2.99-3.37-1.03-1.43-1.97-3.01-2.35-4.7-.86-4.49,5.55-3.95,6.28-7.64.31-1.93-.15-4.09.42-5.99.6-2.55,3.12-2.95,5.13-3.2,1.2.08,33.37.77,40.07,1.14l.06.02c6.45,1.87,12.56,6.5,18.44,9.47,2.35,1.17,6.27,3.37,8.27,4.41.08.05.16.09.22.13-.05-8.74,0-21.68-.02-29.38,0-2.32,0-3.72.22-4.39.26-.8.99-.72,1.75-.75,10.75.11,71.16-.22,83.56.11,2.28.6-2.02,6.56-2.57,8.14ZM993.05,435.62c-1.36,4.51-3.29,8.89-6.21,12.63-6.88,8.97-17.67,11.73-25.24,1.74-6.42-8.22-7.62-20.32-6.05-30.4,1.13-7.41,3.58-15.05,8.91-20.22l.09-.09c4.26-4.15,10.95-6.44,16.64-4.49,5.94,1.95,9.43,7.89,11.36,13.56,3.05,8.82,3.22,18.3.5,27.26ZM1001.65,340.12c-.33,12.8-3.97,26.34-12.7,34.77-7.79,7.88-19.49,10.25-28.42,3.12-11.8-9.06-14.08-27.08-12.14-41.44,1.41-10.49,4.45-20.89,10.64-29.44l.07-.1c6.76-9.55,18.28-13,28.05-6.51,11.99,8.46,14.67,25.48,14.48,39.61Z"/>
  <path id="szkielet" class="cls-1" d="M582.98,533.34l-.3-5.69.18-2.65.12,8.34ZM584.07,507.85l-.1,1.03-.09,1.27.19-2.3ZM592.65,480.89l1.61-2.84,2.64-3,.52-1.35-3.78,5.19-1,2ZM583.08,521.71l-.18,2.54.18-2.54h0ZM1001.43,418.96v20.95l-1.71,5.73-1.89,6.02-1.83,3.84-3.95,6.79-4.72,5.08-9.86,9.68-4.72,1.89-4.01,1.89-9.68,1.53-5.43,1.18h-88.54l-42.5-.35-80.16-3.42-2.12.35-1.74,1.42-3.69,2.6-2.36,2.24-1.53,2.01-1.06,5.19-1.42,10.39.24,18.42.35,31.4,1.77,10.86.71,7.08,1.18,5.9.83,5.31,2.12,6.26,2.86,9.68-.44,7.61-1.24,1.95-1.06,1.95-3.1,2.12-6.91,4.6-5.67,1.68-5.84,2.04-3.54,1.86-5.76,1.15-5.14,1.06-16.11-1.06-17.62-2.04-27.36-1.86-28.07-1.06-26.21-2.66-18.06-.89-10.8-2.3-10.45-2.83-1.95-1.68-2.3-.27-1.59.18-.71,2.92-2.21,5.93-1.42,7.17-1.24,5.22-.97,4.69-1.15,4.87-1.86,8.68-.97,3.72-1.95,5.84-1.06,4.96-1.68,7.53-1.24,9.74-2.74,6.82-1.24,8.85-1.59,7.61-2.12,7.88-1.77,5.58-3.19,13.55-1.68,8.68-2.04,8.85-1.68,9.44-2.12,8.94-2.88,8.68-.84,2.08-1.28,11.38-.8,1.06-1.06,8.77-1.06,1.15-1.77,4.47-.89,7.7-1.15,4.07.27,11.07.89,8.5-1.08,10.58v9.64l-1.77,1.18-6.73,6.49-3.66,2.48-5.96,1.89-10.27,4.31-10.03,3.19-10.15,1.59-20.66,1.42-10.21.59-9.92,1.18h-10.39l-7.85-.3-9.44-1.65-6.61-1.12-10.92-1.36-10.03-1.71-11.86-1.71-18.24-3.07-5.84-.94-9.71-1.65-5.98-.93-2.88-1.73.04-1.28-.93-1.28-1.24-2.7-1.82-1.77-5.53-6.15-4.07-5.89-.8-1.51-.13-4.21-2.08-4.74-1.51-4.12-1.24-6.42-.04-12.75.09-18.06.04-6.99,2.88-24.13.78-6.85,1.89-9.62,2.83-11.75,2.3-8.74,1.53-5.61,3.25-9.15,3.13-10.15,4.43-11.72,5.76-16.65,4.07-11.6,4.69-13.28,3.1-10.89,2.92-10.27,3.81-14.08,2.92-12.31,1.86-10.09,3.01-12.93,1.95-11.78,2.01-10.65,2.54-14.7,2.07-15.82,1.24-14.4.71-10.27.24-17.65-2.66-11.98-5.78-15.23-7.2-11.81-10.03-13.16-7.97-8.5-9.8-6.61-6.37-2.66-4.97-.86-3.32-1.73-6.15-5.62-2.79-5.71v-6.42l.75-2.35,3.23-3.59,3.59-1.24,146.8,7.04,1.42-.06,3.07-.18-.55,1.29c-2.36.57-5.27,2.14-6.37,4.43-8.07-1.89-10.6,6.27-10.98,12.75-1.64,20.42,4.86,14.66,20.19,18.06,6.58.75,13.39-.8,17.71-6.2-.11-6.75.4-15.15,2.66-21.43,1.79-.36,5.22-.41,6.73.89l3.51-2.26,2.58-.42,17.62.59,2.86,1.21,19.12-.03,1.09-.18.94-.74.83-.27.89-.65.89-.97,1.83-1.12,96.51,5.05,64.64,2.66,44.26,2.12,1.28,1.74,214.39,5.92,2.02.18.89,2.61,1.11,19.57.62,3.76,1.24,3.94,1.95,6.55,1.82,2.92,2.88,4.83,3.01,3.98,3.85,3.81,3.72,2.04,3.94.89,10.67.04,6.11-2.08,3.67-1.95,2.83-1.99,1.99-1.73,2.88-3.23,3.67-4.69.93-1.99,3.45-6.46,3.39-8.92,1.77-15.17ZM481.5,548.31l-11.45-2.83-17.24-5.43-9.8-4.13-5.78-2.95-3.54-1.89-3.01-2.42-5.37,41.14,22.67,12.04,1.77-5.43,28.57,6.85,3.19-34.94ZM570.75,437.67c1.19,2.4,4.18,4.02,6.68,4.52,2.48.37,3.05-2.45,3.59-4.32.85-3.28,2.03-8,2.9-11.49.45-2.02,1.16-4.31.15-6.19-1.23-2.08-4.17-3.66-6.54-3.37l-.08.02c-1.84.47-2.31,2.19-3.23,5.02-.7,2.29-1.46,4.85-2.16,7.2-.86,3.11-2.27,6.45-1.31,8.63ZM534.26,458.73c3,0,5.43-3.69,5.43-8.24s-2.43-8.24-5.43-8.24-5.43,3.69-5.43,8.24,2.43,8.24,5.43,8.24ZM660.8,517.34l-.94-5.19-1.89-6.85-1.65-6.37-4.96-7.32-5.19-5.43-5.9-6.14-4.96-3.78-5.9-2.56h-31.97l-16.06,1.53-17,2.12-10.86,1.06-6.61,1.65-6.37,4.01-4.37,4.49-3.31,3.66-2.01,6.26v13.58l1.42,12.4,4.13,15.23,6.73,16.88,6.61,12.04,3.54,4.37,3.78,2.83,6.61,2.6,9.21.47,3.36-.86,3.72-.71,3.19-1.24,3.63-1.77,1.59-1.68.42-1.31v.33l1.18,1.42,6.14,1.95,4.01,2.77,41.55,3.07h11.33l1.42-1.97,3.07-2.04,1.89-1.95,1.42-10.09v-47.46ZM591.53,483.14l-3.07,7.2-3.78,11.1,4.35-12.14,3.63-8.41-1.13,2.25ZM583.09,541.28l-.07-4.56v6.87l.2,1.22-.13-3.53ZM584.78,554.2l-.97-6.37-.58-3.02,1.81,11.14,1.42,4.4,1.25,4.26-2.92-10.41ZM588.79,568.51h0s0,0,0,0h0Z"/>
  <path id="pazur" class="cls-1" d="M503.26,306.9c-6.7-.37-38.88-1.05-40.07-1.14-2.01.26-4.53.65-5.13,3.2-.57,1.89-.12,4.06-.42,5.99-.73,3.69-7.14,3.15-6.28,7.64.37,1.7,1.31,3.27,2.35,4.7.81,1.06,1.8,2.59,2.99,3.37,10.95,4.52,50.69,3.08,61.66,4.19,2.98,2.08,10.95,8.05,12.13,8.86.09.05.14.09.17,0,.03-.26,0-1.58.01-3.46,0-6.02.01-17.76,0-18.94-.07-.3-.25-.28-.63-.52-2-1.04-5.92-3.24-8.27-4.41-5.87-2.97-11.99-7.6-18.44-9.47l-.06-.02Z"/>
  <path id="zerdz" class="cls-1" d="M964.46,399.37c-5.32,5.17-7.78,12.81-8.91,20.22-1.56,10.08-.36,22.18,6.05,30.4,7.57,9.98,18.35,7.23,25.24-1.74,2.92-3.75,4.85-8.13,6.21-12.63,2.72-8.96,2.55-18.44-.5-27.26-1.93-5.67-5.42-11.61-11.36-13.56-5.69-1.95-12.39.34-16.64,4.49l-.09.09Z"/>
  <polygon id="stopka" class="cls-1" points="291.91 863.2 291.91 865.89 290.47 868.96 287.99 875.33 287.99 878.52 287.99 882.3 289.95 884.78 295.79 888.44 318.81 894.81 339.46 898.12 360.95 900.24 374.88 900.95 400.26 902.01 413.01 902.01 423.75 901.42 431.78 898.71 440.75 894.81 455.27 891.15 467.43 888.67 476.4 886.67 480.89 885.48 484.55 882.6 487.03 879.37 488.33 876.87 489.98 864.47 491.04 855.05 489.27 856.23 485.86 859.51 483.1 862.18 477.68 865.58 470.11 868.27 457.5 873.03 452.09 874.67 447.42 875.4 434.48 876.73 415.96 877.93 410.64 878.3 404.3 879.06 400.62 879.37 386.45 879.37 381.47 878.73 329.84 870.72 311.5 867.67 296.24 865.15 294.79 864.92 291.91 863.2"/>
  <path id="blokadap" class="cls-1" d="M572.06,429.04c.7-2.34,1.46-4.9,2.16-7.2.92-2.83,1.4-4.55,3.23-5.02l.08-.02c2.37-.29,5.31,1.29,6.54,3.37,1.01,1.89.3,4.17-.15,6.19-.88,3.49-2.05,8.21-2.9,11.49-.54,1.87-1.11,4.69-3.59,4.32-2.5-.49-5.49-2.12-6.68-4.52-.97-2.18.45-5.52,1.31-8.63Z"/>
  <path id="lufa" class="cls-1" d="M613.19,294.64c-1.43,2.76-2.44,5.59-2.84,8.65-1.7,12.4,1.63,27.3-7.36,37.32-1.76,2.08-4.3,4.23-6.48,5.47-3.11,1.82-6.36.89-9.8.97-15.04-.42-37.07-1.05-51.53-1.46-3.83-.09-5.02.2-5.01-4.08-.07-5.57.14-13.91.08-19.76v-.08c-.06-8.73-.01-22.21-.02-30.14,0-2.32,0-3.72.22-4.39.26-.8.99-.72,1.75-.75,10.75.11,71.16-.22,83.56.11,2.28.6-2.02,6.56-2.57,8.14ZM1001.65,340.12c-.33,12.8-3.97,26.34-12.7,34.77-7.79,7.88-19.49,10.25-28.42,3.12-11.8-9.06-14.08-27.08-12.14-41.44,1.41-10.49,4.45-20.89,10.64-29.44l.07-.1c6.76-9.55,18.28-13,28.05-6.51,11.99,8.46,14.67,25.48,14.48,39.61ZM985.53,321.48c-2.42-3.68-6.87-6.32-11.24-4.64l-.13.05c-11.87,5.38-14.01,26.6-8.81,37.76,7.82,16.4,20.91,5.93,23.7-7.29,2.26-8.26.78-20.05-3.52-25.88Z"/>
</svg>