<?xml version="1.0" encoding="UTF-8"?>
<svg id="Warstwa_1" data-name="Warstwa 1" xmlns="http://www.w3.org/2000/svg" viewBox="0 0 1165.01 503.85">
  <defs>
    <style>
      .cls-1 {
        fill: none;
        stroke: #1d1d1b;
        stroke-miterlimit: 10;
      }
    </style>
  </defs>
  <path id="zamek" class="cls-1" d="M1057.84,232.5l-456.76-24h-11.24l-60-17.33h-49.33v10.67L9.84,172.5.51,43.17l12-17.33,6.67-9.33h46.67l-22.67,12,48,1.33,44-21.33L203.18.5l830.67,16-2.67,17.33s29.33-5.33,33.33-5.33,32,4,32,4l12-10.67,49.33,30.67,6.67,114.67v84l-17.33,26.67-22.67,21.33-38.67,12s1.33-13.33-1.33-20-24-32-24-36-2.67-22.67-2.67-22.67Z"/>
  <path id="spust" class="cls-1" d="M484.51,493.83l-30.67-5.33-16-29.33-20-50.67v-48s8-18.67,13.33-21.33,53.33-14.67,53.33-14.67h26.67s-14.67,53.33-14.67,60,1.33,40,1.33,40l-1.33,46.67,1.33,17.33-13.33,5.33Z"/>
  <path id="lufa1" class="cls-1" d="M1091.18,64.5l-16,61.33,16,41.33s14.67,9.33,18.67,9.33,16,5.33,21.33,0,17.33-20.67,17.33-20.67v-34.15l-10.67-57.19-17.33-8-29.33,8Z"/>
  <polygon id="zrzut" class="cls-1" points="255.18 419.17 245.84 479.17 277.84 493.83 288.51 488.5 329.84 503.17 335.18 453.5 269.84 427.17 255.18 419.17"/>
</svg>