<?xml version="1.0" encoding="UTF-8"?>
<svg id="glock" xmlns="http://www.w3.org/2000/svg" xmlns:xlink="http://www.w3.org/1999/xlink" viewBox="0 0 1729.45 1181.31">
  <defs>
    <style>
      .cls-1 {
        fill: none;
      }

      .cls-2 {
        fill: #fff;
        stroke: #000;
        stroke-miterlimit: 10;
      }
    </style>
  </defs>
  <polygon id="zrzut" class="cls-1" points="409.33 849.09 432 861.13 433.77 855.7 462.34 862.55 465.52 827.6 454.07 824.77 436.84 819.34 427.04 815.21 421.26 812.26 417.71 810.37 414.7 807.95 409.33 849.09"/>
  <ellipse id="pin" class="cls-1" cx="518.29" cy="729.79" rx="5.43" ry="8.24"/>
  <polyline id="spust" class="cls-1" points="556.9 858.18 547.69 857.71 541.08 855.11 537.3 852.28 533.76 847.91 527.15 835.87 520.42 818.99 516.29 803.76 514.87 791.36 514.87 785.34 514.87 777.79 516.88 771.53 520.18 767.87 524.55 763.38 530.93 759.37 537.54 757.72 548.4 756.66 565.4 754.53 581.45 753 577.67 758.19 575.55 762.44 572.48 769.64 568.7 780.74 567.99 788.18 566.69 806.95 567.05 813.56 567.05 822.88 569.06 835.25 570.47 839.65 571.89 844.49 572.66 846.79 573.1 849.71 572.39 851.92 570.8 853.61 567.17 855.38 563.98 856.62 560.26 857.32"/>
  <path id="zamek" class="cls-1" d="M987.9,587.55l-4.21-9.3-6.46-9.12-3.67-4.38-4.38-2.97-9.78-3.98-12.04.18.53,1.59,1.06,1.77v1.77l-4.25.89-5.84.71-33.82-.71-1.06-2.12,1.06-3.19v-2.83l-537.43-8.68-60.03,8.5-1.95.89-1.95,1.24-1.95,1.77-1.77,2.83-.71,2.3-12.22-.18v-11.16h-16.82l-2.48,1.06-2.48,1.77-2.48,1.59-2.3,2.66-3.81,4.25-1.09,2.83-1.65,4.07,5.49,84.47.3.72,1.59,1.51,1.84,1.73.18,2.08,34.18,1.65,78.18,3.75,27.94,1.34,7.52.25,3.29-.19,1.21-.11.98-.35,1.58-.36,2.73-.39h5.31l5.85.45,8.02.88,5.28,5.53.54,1.01.17,1.43.63-.17,1.2-.48,1.97-.32,17.62.59,1,.42,1.86.79,20.22-.21.55-.43.39-.31.54-.17.96-.59.54-.52.55-.6,1.83-1.12,205.41,9.83,1.28,1.74,216.41,6.09.89,2.61.11,1.87.32,5.63.49,8.71.51,5.29,1.08,4.31,1.53,5.07.88,2.95,1.42,2.29,2.9,4.83,2.19,3.03,3.06,3.43,2.94,2.49,1.66.91,5.55,1.49,4.83.04h4.25l3.09-.68,3.53-1.2,3.48-1.73,2.82-1.85,3.36-2.93,5.97-7.27.09-.19,7.68-17.18.25-2.13.29-2.44,1.24-10.59,4.09-21.99v-82.39l-1.64-6.33ZM597.22,573.94c-1.43,2.76-2.44,5.59-2.84,8.65-1.7,12.4,1.63,27.3-7.37,37.32-1.76,2.08-4.3,4.23-6.48,5.47-3.11,1.82-6.36.89-9.8.97-15.04-.42-37.07-1.05-51.53-1.46-3.05-.07-4.42.09-4.85-1.98-1.58-1.12-9.1-6.75-11.98-8.76-10.97-1.11-50.72.33-61.66-4.19-1.18-.78-2.17-2.31-2.99-3.37-1.03-1.43-1.97-3.01-2.35-4.7-.86-4.49,5.55-3.95,6.28-7.64.31-1.93-.15-4.09.42-5.99.6-2.55,3.12-2.95,5.13-3.2,1.2.08,33.37.77,40.07,1.14l.06.02c6.45,1.87,12.56,6.5,18.44,9.47,2.35,1.17,6.27,3.37,8.27,4.41.08.05.16.09.22.13-.05-8.74,0-21.68-.02-29.38,0-2.32,0-3.72.22-4.39.26-.8.99-.72,1.75-.75,10.75.11,71.16-.22,83.56.11,2.28.6-2.02,6.56-2.57,8.14ZM977.07,714.92c-1.36,4.51-3.29,8.89-6.21,12.63-6.88,8.97-17.67,11.73-25.24,1.74-6.42-8.22-7.62-20.32-6.05-30.4,1.13-7.41,3.58-15.05,8.91-20.22l.09-.09c4.26-4.15,10.95-6.44,16.64-4.49,5.94,1.95,9.43,7.89,11.36,13.56,3.05,8.82,3.22,18.3.5,27.26ZM985.67,619.42c-.33,12.8-3.97,26.34-12.7,34.77-7.79,7.88-19.49,10.25-28.42,3.12-11.8-9.06-14.08-27.08-12.14-41.44,1.41-10.49,4.45-20.89,10.64-29.44l.07-.1c6.76-9.55,18.28-13,28.05-6.51,11.99,8.46,14.67,25.48,14.48,39.61Z"/>
  <path id="szkielet" class="cls-1" d="M567,812.64l-.3-5.69.18-2.65.12,8.34ZM568.09,787.15l-.1,1.03-.09,1.27.19-2.3ZM576.67,760.19l1.61-2.84,2.64-3,.52-1.35-3.78,5.19-1,2ZM567.11,801.01l-.18,2.54.18-2.54h0ZM985.46,698.26v20.95l-1.71,5.73-1.89,6.02-1.83,3.84-3.95,6.79-4.72,5.08-9.86,9.68-4.72,1.89-4.01,1.89-9.68,1.53-5.43,1.18h-88.54l-42.5-.35-80.16-3.42-2.12.35-1.74,1.42-3.69,2.6-2.36,2.24-1.53,2.01-1.06,5.19-1.42,10.39.24,18.42.35,31.4,1.77,10.86.71,7.08,1.18,5.9.83,5.31,2.12,6.26,2.86,9.68-.44,7.61-1.24,1.95-1.06,1.95-3.1,2.12-6.91,4.6-5.67,1.68-5.84,2.04-3.54,1.86-5.76,1.15-5.14,1.06-16.11-1.06-17.62-2.04-27.36-1.86-28.07-1.06-26.21-2.66-18.06-.89-10.8-2.3-10.45-2.83-1.95-1.68-2.3-.27-1.59.18-.71,2.92-2.21,5.93-1.42,7.17-1.24,5.22-.97,4.69-1.15,4.87-1.86,8.68-.97,3.72-1.95,5.84-1.06,4.96-1.68,7.53-1.24,9.74-2.74,6.82-1.24,8.85-1.59,7.61-2.12,7.88-1.77,5.58-3.19,13.55-1.68,8.68-2.04,8.85-1.68,9.44-2.12,8.94-2.88,8.68-.84,2.08-1.28,11.38-.8,1.06-1.06,8.77-1.06,1.15-1.77,4.47-.89,7.7-1.15,4.07.27,11.07.89,8.5-1.08,10.58v9.64l-1.77,1.18-6.73,6.49-3.66,2.48-5.96,1.89-10.27,4.31-10.03,3.19-10.15,1.59-20.66,1.42-10.21.59-9.92,1.18h-10.39l-7.85-.3-9.44-1.65-6.61-1.12-10.92-1.36-10.03-1.71-11.86-1.71-18.24-3.07-5.84-.94-9.71-1.65-5.98-.93-2.88-1.73.04-1.28-.93-1.28-1.24-2.7-1.82-1.77-5.53-6.15-4.07-5.89-.8-1.51-.13-4.21-2.08-4.74-1.51-4.12-1.24-6.42-.04-12.75.09-18.06.04-6.99,2.88-24.13.78-6.85,1.89-9.62,2.83-11.75,2.3-8.74,1.53-5.61,3.25-9.15,3.13-10.15,4.43-11.72,5.76-16.65,4.07-11.6,4.69-13.28,3.1-10.89,2.92-10.27,3.81-14.08,2.92-12.31,1.86-10.09,3.01-12.93,1.95-11.78,2.01-10.65,2.54-14.7,2.07-15.82,1.24-14.4.71-10.27.24-17.65-2.66-11.98-5.78-15.23-7.2-11.81-10.03-13.16-7.97-8.5-9.8-6.61-6.37-2.66-4.97-.86-3.32-1.73-6.15-5.62-2.79-5.71v-6.42l.75-2.35,3.23-3.59,3.59-1.24,146.8,7.04,1.42-.06,3.07-.18-.55,1.29c-2.36.57-5.27,2.14-6.37,4.43-8.07-1.89-10.6,6.27-10.98,12.75-1.64,20.42,4.86,14.66,20.19,18.06,6.58.75,13.39-.8,17.71-6.2-.11-6.75.4-15.15,2.66-21.43,1.79-.36,5.22-.41,6.73.89l3.51-2.26,2.58-.42,17.62.59,2.86,1.21,19.12-.03,1.09-.18.94-.74.83-.27.89-.65.89-.97,1.83-1.12,96.51,5.05,64.64,2.66,44.26,2.12,1.28,1.74,214.39,5.92,2.02.18.89,2.61,1.11,19.57.62,3.76,1.24,3.94,1.95,6.55,1.82,2.92,2.88,4.83,3.01,3.98,3.85,3.81,3.72,2.04,3.94.89,10.67.04,6.11-2.08,3.67-1.95,2.83-1.99,1.99-1.73,2.88-3.23,3.67-4.69.93-1.99,3.45-6.46,3.39-8.92,1.77-15.17ZM465.52,827.6l-11.45-2.83-17.24-5.43-9.8-4.13-5.78-2.95-3.54-1.89-3.01-2.42-5.37,41.14,22.67,12.04,1.77-5.43,28.57,6.85,3.19-34.94ZM554.77,716.96c1.19,2.4,4.18,4.02,6.68,4.52,2.48.37,3.05-2.45,3.59-4.32.85-3.28,2.03-8,2.9-11.49.45-2.02,1.16-4.31.15-6.19-1.23-2.08-4.17-3.66-6.54-3.37l-.08.02c-1.84.47-2.31,2.19-3.23,5.02-.7,2.29-1.46,4.85-2.16,7.2-.86,3.11-2.27,6.45-1.31,8.63ZM518.29,738.03c3,0,5.43-3.69,5.43-8.24s-2.43-8.24-5.43-8.24-5.43,3.69-5.43,8.24,2.43,8.24,5.43,8.24ZM644.82,796.64l-.94-5.19-1.89-6.85-1.65-6.37-4.96-7.32-5.19-5.43-5.9-6.14-4.96-3.78-5.9-2.56h-31.97l-16.06,1.53-17,2.12-10.86,1.06-6.61,1.65-6.37,4.01-4.37,4.49-3.31,3.66-2.01,6.26v13.58l1.42,12.4,4.13,15.23,6.73,16.88,6.61,12.04,3.54,4.37,3.78,2.83,6.61,2.6,9.21.47,3.36-.86,3.72-.71,3.19-1.24,3.63-1.77,1.59-1.68.42-1.31v.33l1.18,1.42,6.14,1.95,4.01,2.77,41.55,3.07h11.33l1.42-1.97,3.07-2.04,1.89-1.95,1.42-10.09v-47.46ZM575.55,762.44l-3.07,7.2-3.78,11.1,4.35-12.14,3.63-8.41-1.13,2.25ZM567.12,820.57l-.07-4.56v6.87l.2,1.22-.13-3.53ZM568.8,833.5l-.97-6.37-.58-3.02,1.81,11.14,1.42,4.4,1.25,4.26-2.92-10.41ZM572.81,847.81h0s0,0,0,0h0Z"/>
  <path id="zerdz" class="cls-1" d="M948.48,678.67c-5.32,5.17-7.78,12.81-8.91,20.22-1.56,10.08-.36,22.18,6.05,30.4,7.57,9.98,18.35,7.23,25.24-1.74,2.92-3.75,4.85-8.13,6.21-12.63,2.72-8.96,2.55-18.44-.5-27.26-1.93-5.67-5.42-11.61-11.36-13.56-5.69-1.95-12.39.34-16.64,4.49l-.09.09Z"/>
  <polygon id="stopka" class="cls-1" points="275.94 1142.49 275.94 1145.19 274.49 1148.25 272.02 1154.63 272.02 1157.82 272.02 1161.59 273.98 1164.07 279.81 1167.73 302.83 1174.11 323.49 1177.41 344.97 1179.54 358.9 1180.25 384.28 1181.31 397.03 1181.31 407.78 1180.72 415.8 1178 424.77 1174.11 439.3 1170.45 451.45 1167.97 460.43 1165.96 464.91 1164.78 468.57 1161.9 471.05 1158.67 472.35 1156.16 474 1143.77 475.06 1134.35 473.29 1135.53 469.88 1138.81 467.12 1141.48 461.7 1144.88 454.13 1147.57 441.52 1152.33 436.11 1153.97 431.44 1154.7 418.5 1156.03 399.98 1157.23 394.66 1157.6 388.32 1158.35 384.64 1158.67 370.47 1158.67 365.5 1158.03 313.87 1150.02 295.53 1146.97 280.27 1144.45 278.81 1144.22 275.94 1142.49"/>
  <path id="blokadap" class="cls-1" d="M556.08,708.33c.7-2.34,1.46-4.9,2.16-7.2.92-2.83,1.4-4.55,3.23-5.02l.08-.02c2.37-.29,5.31,1.29,6.54,3.37,1.01,1.89.3,4.17-.15,6.19-.88,3.49-2.05,8.21-2.9,11.49-.54,1.87-1.11,4.69-3.59,4.32-2.5-.49-5.49-2.12-6.68-4.52-.97-2.18.45-5.52,1.31-8.63Z"/>
  <path id="lufa" class="cls-1" d="M597.22,573.94c-1.43,2.76-2.44,5.59-2.84,8.65-1.7,12.4,1.63,27.3-7.36,37.32-1.76,2.08-4.3,4.23-6.48,5.47-3.11,1.82-6.36.89-9.8.97-15.04-.42-37.07-1.05-51.53-1.46-3.83-.09-5.02.2-5.01-4.08-.07-5.57.14-13.91.08-19.76v-.08c-.06-8.73-.01-22.21-.02-30.14,0-2.32,0-3.72.22-4.39.26-.8.99-.72,1.75-.75,10.75.11,71.16-.22,83.56.11,2.28.6-2.02,6.56-2.57,8.14ZM985.67,619.42c-.33,12.8-3.97,26.34-12.7,34.77-7.79,7.88-19.49,10.25-28.42,3.12-11.8-9.06-14.08-27.08-12.14-41.44,1.41-10.49,4.45-20.89,10.64-29.44l.07-.1c6.76-9.55,18.28-13,28.05-6.51,11.99,8.46,14.67,25.48,14.48,39.61ZM969.55,600.77c-2.42-3.68-6.87-6.32-11.24-4.64l-.13.05c-11.87,5.38-14.01,26.6-8.81,37.76,7.82,16.4,20.91,5.93,23.7-7.29,2.26-8.26.78-20.05-3.52-25.88Z"/>
  <image width="1620" height="1080" transform="scale(1.07)" xlink:href="img/glocktyl.jpg"/>
  <polygon id="pazur" class="cls-2" points="994.22 498.87 920.26 525.77 912.41 535.85 912.41 542.58 920.26 547.17 920.26 561.63 919.13 576.48 926.98 576.48 1026.71 537.68 1026.71 488.79 994.22 498.87"/>
  <polygon id="blokada2" class="cls-2" points="858.62 715.15 868.71 721.56 863.66 738.03 850.78 756.59 845.17 780.74 845.17 801.01 856.94 805.59 868.71 816.02 882.15 812.64 907.93 801.01 925.86 789.45 938.96 770.46 940.15 745.54 931.8 729.79 931.8 721.56 931.8 704.51 920.06 696.02 858.62 715.15"/>
</svg>